<?xml version="1.0" encoding="UTF-8" standalone="no"?>
<!-- Svg Vector Icons : http://www.onlinewebfonts.com/icon -->

<svg
   xmlns:dc="http://purl.org/dc/elements/1.1/"
   xmlns:cc="http://creativecommons.org/ns#"
   xmlns:rdf="http://www.w3.org/1999/02/22-rdf-syntax-ns#"
   xmlns:svg="http://www.w3.org/2000/svg"
   xmlns="http://www.w3.org/2000/svg"
   xmlns:sodipodi="http://sodipodi.sourceforge.net/DTD/sodipodi-0.dtd"
   xmlns:inkscape="http://www.inkscape.org/namespaces/inkscape"
   version="1.1"
   x="0px"
   y="0px"
   viewBox="0 0 1000 1000"
   enable-background="new 0 0 1000 1000"
   xml:space="preserve"
   id="svg4330"
   inkscape:version="0.91+devel r14859"
   sodipodi:docname="vpn_off.svg"><defs
     id="defs4334" /><sodipodi:namedview
     pagecolor="#ffffff"
     bordercolor="#666666"
     borderopacity="1"
     objecttolerance="10"
     gridtolerance="10"
     guidetolerance="10"
     inkscape:pageopacity="0"
     inkscape:pageshadow="2"
     inkscape:window-width="1275"
     inkscape:window-height="1043"
     id="namedview4332"
     showgrid="false"
     inkscape:zoom="0.742"
     inkscape:cx="500"
     inkscape:cy="500"
     inkscape:window-x="1281"
     inkscape:window-y="35"
     inkscape:window-maximized="0"
     inkscape:current-layer="svg4330" /><metadata
     id="metadata4324"> Svg Vector Icons : http://www.onlinewebfonts.com/icon <rdf:RDF><cc:Work
     rdf:about=""><dc:format>image/svg+xml</dc:format><dc:type
       rdf:resource="http://purl.org/dc/dcmitype/StillImage" /><dc:title></dc:title></cc:Work></rdf:RDF></metadata><g
     id="g4328"
     style="fill:#000000"><path
       d="M945.5,143.6v-22.3C945.5,59,896.5,10,834.1,10c-62.4,0-111.4,49-111.4,111.4v22.3c-26.7,0-44.5,17.8-44.5,44.5v178.2c0,26.7,17.8,44.5,44.5,44.5h222.7c26.7,0,44.5-17.8,44.5-44.5V188.2C990,161.5,972.2,143.6,945.5,143.6z M909.8,143.6H758.4v-22.3c0-40.1,35.6-75.7,75.7-75.7c40.1,0,75.7,35.6,75.7,75.7V143.6L909.8,143.6z M807.4,500c0,13.4,4.5,31.2,4.5,44.5c0,93.5-35.6,178.2-93.5,240.5c-13.4-35.6-44.5-62.4-84.6-62.4h-44.5V589.1c0-26.7-17.8-44.5-44.5-44.5H277.3v-89.1h89.1c26.7,0,44.5-17.8,44.5-44.5v-89.1H500c49,0,89.1-40.1,89.1-89.1V121.4C549,108,500,99.1,455.5,99.1C210.5,99.1,10,299.5,10,544.5C10,789.5,210.5,990,455.5,990c245,0,445.5-200.5,445.5-445.5c0-13.4,0-31.2-4.5-44.5H807.4z M410.9,896.5C237.2,874.2,99.1,722.7,99.1,544.5c0-26.7,4.5-53.5,8.9-80.2l213.8,213.8v44.5c0,49,40.1,89.1,89.1,89.1V896.5L410.9,896.5z"
       id="path4326"
       style="fill:#000000" /></g></svg>