<?xml version="1.0" encoding="UTF-8" standalone="no"?>
<!-- Generator: Adobe Illustrator 18.1.1, SVG Export Plug-In . SVG Version: 6.00 Build 0)  -->

<svg
   xmlns:dc="http://purl.org/dc/elements/1.1/"
   xmlns:cc="http://creativecommons.org/ns#"
   xmlns:rdf="http://www.w3.org/1999/02/22-rdf-syntax-ns#"
   xmlns:svg="http://www.w3.org/2000/svg"
   xmlns="http://www.w3.org/2000/svg"
   xmlns:sodipodi="http://sodipodi.sourceforge.net/DTD/sodipodi-0.dtd"
   xmlns:inkscape="http://www.inkscape.org/namespaces/inkscape"
   version="1.1"
   id="Layer_1"
   x="0px"
   y="0px"
   viewBox="0 0 60 60"
   enable-background="new 0 0 60 60"
   xml:space="preserve"
   inkscape:version="0.91+devel r14859"
   sodipodi:docname="nas_on2.svg"><metadata
     id="metadata4353"><rdf:RDF><cc:Work
         rdf:about=""><dc:format>image/svg+xml</dc:format><dc:type
           rdf:resource="http://purl.org/dc/dcmitype/StillImage" /><dc:title></dc:title></cc:Work></rdf:RDF></metadata><defs
     id="defs4351" /><sodipodi:namedview
     pagecolor="#ffffff"
     bordercolor="#666666"
     borderopacity="1"
     objecttolerance="10"
     gridtolerance="10"
     guidetolerance="10"
     inkscape:pageopacity="0"
     inkscape:pageshadow="2"
     inkscape:window-width="1276"
     inkscape:window-height="1043"
     id="namedview4349"
     showgrid="false"
     inkscape:zoom="12.4"
     inkscape:cx="29.919355"
     inkscape:cy="33.225806"
     inkscape:window-x="1280"
     inkscape:window-y="35"
     inkscape:window-maximized="0"
     inkscape:current-layer="layer1" /><g
     id="g4316"
     inkscape:label="g4316"
     style="image-rendering:auto"><path
       d="m 17.4,29.6 c 0.6,0 1.1,-0.5 1.1,-1.1 0,-0.6 -0.5,-1.1 -1.1,-1.1 -0.6,0 -1.1,0.5 -1.1,1.1 0,0.6 0.5,1.1 1.1,1.1"
       id="path4314"
       inkscape:connector-curvature="0"
       style="fill:#666666"
       inkscape:label="path4314" /></g><g
     id="g4318" /><g
     id="g4320" /><g
     id="g4322" /><g
     id="g4324" /><g
     id="g4326" /><g
     id="g4328" /><g
     id="g4330" /><g
     id="g4332" /><g
     id="g4334" /><g
     id="g4336" /><g
     id="g4338" /><g
     id="g4340" /><g
     id="g4342" /><g
     id="g4344" /><g
     id="g4346" /><rect
     style="fill:#ffffff;fill-opacity:1"
     id="rect4355"
     width="37.983871"
     height="31.451612"
     x="11.532258"
     y="14.516129" /><g
     inkscape:groupmode="layer"
     id="layer1"
     inkscape:label="Layer 1"><path
       d="M 30,0 C 13.4,0 0,13.4 0,30 0,46.6 13.4,60 30,60 46.6,60 60,46.6 60,30 60,13.4 46.6,0 30,0 m -6.2,17.7 h 12.5 l 9,6.5 H 14.7 Z M 45.3,42.3 H 14.7 v -1.4 h 14.6 v -4.7 h 1.4 v 4.7 h 14.6 z m 0,-8 H 14.7 v -8.4 h 1 29.6 z"
       id="path4312"
       inkscape:connector-curvature="0"
       style="fill:#666666;image-rendering:auto"
       inkscape:label="path4312" /></g></svg>